0
SECTION
2
HEADER
9
$ACADVER
1
AC1015
9
$TILEMODE
70
1
0
ENDSEC
0
SECTION
2
TABLES
0
TABLE
2
BLOCK_RECORD
70
26
0
BLOCK_RECORD
5
100
100
AcDbSymbolTableRecord
100
AcDbBlockTableRecord
2
*Model_Space
70
0
0
BLOCK_RECORD
5
101
100
AcDbSymbolTableRecord
100
AcDbBlockTableRecord
2
*Paper_Space
70
0
0
BLOCK_RECORD
5
102
100
AcDbSymbolTableRecord
100
AcDbBlockTableRecord
2
B0
70
0
0
BLOCK_RECORD
5
103
100
AcDbSymbolTableRecord
100
AcDbBlockTableRecord
2
B1
70
0
0
BLOCK_RECORD
5
104
100
AcDbSymbolTableRecord
100
AcDbBlockTableRecord
2
B2
70
0
0
BLOCK_RECORD
5
105
100
AcDbSymbolTableRecord
100
AcDbBlockTableRecord
2
B3
70
0
0
BLOCK_RECORD
5
106
100
AcDbSymbolTableRecord
100
AcDbBlockTableRecord
2
B4
70
0
0
BLOCK_RECORD
5
107
100
AcDbSymbolTableRecord
100
AcDbBlockTableRecord
2
B5
70
0
0
BLOCK_RECORD
5
108
100
AcDbSymbolTableRecord
100
AcDbBlockTableRecord
2
B6
70
0
0
BLOCK_RECORD
5
109
100
AcDbSymbolTableRecord
100
AcDbBlockTableRecord
2
B7
70
0
0
BLOCK_RECORD
5
10A
100
AcDbSymbolTableRecord
100
AcDbBlockTableRecord
2
B8
70
0
0
BLOCK_RECORD
5
10B
100
AcDbSymbolTableRecord
100
AcDbBlockTableRecord
2
B9
70
0
0
BLOCK_RECORD
5
10C
100
AcDbSymbolTableRecord
100
AcDbBlockTableRecord
2
B10
70
0
0
BLOCK_RECORD
5
10D
100
AcDbSymbolTableRecord
100
AcDbBlockTableRecord
2
B11
70
0
0
BLOCK_RECORD
5
10E
100
AcDbSymbolTableRecord
100
AcDbBlockTableRecord
2
B12
70
0
0
BLOCK_RECORD
5
10F
100
AcDbSymbolTableRecord
100
AcDbBlockTableRecord
2
B13
70
0
0
BLOCK_RECORD
5
110
100
AcDbSymbolTableRecord
100
AcDbBlockTableRecord
2
B14
70
0
0
BLOCK_RECORD
5
111
100
AcDbSymbolTableRecord
100
AcDbBlockTableRecord
2
B15
70
0
0
BLOCK_RECORD
5
112
100
AcDbSymbolTableRecord
100
AcDbBlockTableRecord
2
B16
70
0
0
BLOCK_RECORD
5
113
100
AcDbSymbolTableRecord
100
AcDbBlockTableRecord
2
B17
70
0
0
BLOCK_RECORD
5
114
100
AcDbSymbolTableRecord
100
AcDbBlockTableRecord
2
B18
70
0
0
BLOCK_RECORD
5
115
100
AcDbSymbolTableRecord
100
AcDbBlockTableRecord
2
B19
70
0
0
BLOCK_RECORD
5
116
100
AcDbSymbolTableRecord
100
AcDbBlockTableRecord
2
B20
70
0
0
BLOCK_RECORD
5
117
100
AcDbSymbolTableRecord
100
AcDbBlockTableRecord
2
B21
70
0
0
BLOCK_RECORD
5
118
100
AcDbSymbolTableRecord
100
AcDbBlockTableRecord
2
B22
70
0
0
BLOCK_RECORD
5
119
100
AcDbSymbolTableRecord
100
AcDbBlockTableRecord
2
B23
70
0
0
ENDTAB
0
ENDSEC
0
SECTION
2
BLOCKS
0
BLOCK
5
1000
330
100
100
AcDbEntity
8
0
100
AcDbBlockBegin
2
*Model_Space
70
0
10
0
20
0
30
0
3
*Model_Space
1

0
ENDBLK
5
1007
330
100
100
AcDbEntity
8
0
100
AcDbBlockEnd
0
BLOCK
5
1020
330
101
100
AcDbEntity
8
0
100
AcDbBlockBegin
2
*Paper_Space
70
0
10
0
20
0
30
0
3
*Paper_Space
1

0
ENDBLK
5
1027
330
101
100
AcDbEntity
8
0
100
AcDbBlockEnd
0
BLOCK
5
1040
330
102
100
AcDbEntity
8
0
100
AcDbBlockBegin
2
B0
70
0
10
0
20
0
30
0
3
B0
1

0
POLYLINE
5
1041
330
102
100
AcDbEntity
8
0
100
AcDb2dPolyline
66
1
10
0
20
0
30
0
70
1
0
VERTEX
5
1042
330
1041
100
AcDbEntity
8
0
100
AcDbVertex
100
AcDb2dVertex
10
0
20
0
30
0
70
0
0
VERTEX
5
1043
330
1041
100
AcDbEntity
8
0
100
AcDbVertex
100
AcDb2dVertex
10
10
20
0
30
0
70
0
0
VERTEX
5
1044
330
1041
100
AcDbEntity
8
0
100
AcDbVertex
100
AcDb2dVertex
10
10
20
10
30
0
70
0
0
VERTEX
5
1045
330
1041
100
AcDbEntity
8
0
100
AcDbVertex
100
AcDb2dVertex
10
0
20
10
30
0
70
0
0
SEQEND
5
1046
330
1041
100
AcDbEntity
8
0
0
ENDBLK
5
1047
330
102
100
AcDbEntity
8
0
100
AcDbBlockEnd
0
BLOCK
5
1060
330
103
100
AcDbEntity
8
0
100
AcDbBlockBegin
2
B1
70
0
10
0
20
0
30
0
3
B1
1

0
POLYLINE
5
1061
330
103
100
AcDbEntity
8
0
100
AcDb2dPolyline
66
1
10
0
20
0
30
0
70
1
0
VERTEX
5
1062
330
1061
100
AcDbEntity
8
0
100
AcDbVertex
100
AcDb2dVertex
10
0
20
0
30
0
70
0
0
VERTEX
5
1063
330
1061
100
AcDbEntity
8
0
100
AcDbVertex
100
AcDb2dVertex
10
10
20
0
30
0
70
0
0
VERTEX
5
1064
330
1061
100
AcDbEntity
8
0
100
AcDbVertex
100
AcDb2dVertex
10
10
20
10
30
0
70
0
0
VERTEX
5
1065
330
1061
100
AcDbEntity
8
0
100
AcDbVertex
100
AcDb2dVertex
10
0
20
10
30
0
70
0
0
SEQEND
5
1066
330
1061
100
AcDbEntity
8
0
0
ENDBLK
5
1067
330
103
100
AcDbEntity
8
0
100
AcDbBlockEnd
0
BLOCK
5
1080
330
104
100
AcDbEntity
8
0
100
AcDbBlockBegin
2
B2
70
0
10
0
20
0
30
0
3
B2
1

0
POLYLINE
5
1081
330
104
100
AcDbEntity
8
0
100
AcDb2dPolyline
66
1
10
0
20
0
30
0
70
1
0
VERTEX
5
1082
330
1081
100
AcDbEntity
8
0
100
AcDbVertex
100
AcDb2dVertex
10
0
20
0
30
0
70
0
0
VERTEX
5
1083
330
1081
100
AcDbEntity
8
0
100
AcDbVertex
100
AcDb2dVertex
10
10
20
0
30
0
70
0
0
VERTEX
5
1084
330
1081
100
AcDbEntity
8
0
100
AcDbVertex
100
AcDb2dVertex
10
10
20
10
30
0
70
0
0
VERTEX
5
1085
330
1081
100
AcDbEntity
8
0
100
AcDbVertex
100
AcDb2dVertex
10
0
20
10
30
0
70
0
0
SEQEND
5
1086
330
1081
100
AcDbEntity
8
0
0
ENDBLK
5
1087
330
104
100
AcDbEntity
8
0
100
AcDbBlockEnd
0
BLOCK
5
10A0
330
105
100
AcDbEntity
8
0
100
AcDbBlockBegin
2
B3
70
0
10
0
20
0
30
0
3
B3
1

0
POLYLINE
5
10A1
330
105
100
AcDbEntity
8
0
100
AcDb2dPolyline
66
1
10
0
20
0
30
0
70
1
0
VERTEX
5
10A2
330
10A1
100
AcDbEntity
8
0
100
AcDbVertex
100
AcDb2dVertex
10
0
20
0
30
0
70
0
0
VERTEX
5
10A3
330
10A1
100
AcDbEntity
8
0
100
AcDbVertex
100
AcDb2dVertex
10
10
20
0
30
0
70
0
0
VERTEX
5
10A4
330
10A1
100
AcDbEntity
8
0
100
AcDbVertex
100
AcDb2dVertex
10
10
20
10
30
0
70
0
0
VERTEX
5
10A5
330
10A1
100
AcDbEntity
8
0
100
AcDbVertex
100
AcDb2dVertex
10
0
20
10
30
0
70
0
0
SEQEND
5
10A6
330
10A1
100
AcDbEntity
8
0
0
ENDBLK
5
10A7
330
105
100
AcDbEntity
8
0
100
AcDbBlockEnd
0
BLOCK
5
10C0
330
106
100
AcDbEntity
8
0
100
AcDbBlockBegin
2
B4
70
0
10
0
20
0
30
0
3
B4
1

0
POLYLINE
5
10C1
330
106
100
AcDbEntity
8
0
100
AcDb2dPolyline
66
1
10
0
20
0
30
0
70
1
0
VERTEX
5
10C2
330
10C1
100
AcDbEntity
8
0
100
AcDbVertex
100
AcDb2dVertex
10
0
20
0
30
0
70
0
0
VERTEX
5
10C3
330
10C1
100
AcDbEntity
8
0
100
AcDbVertex
100
AcDb2dVertex
10
10
20
0
30
0
70
0
0
VERTEX
5
10C4
330
10C1
100
AcDbEntity
8
0
100
AcDbVertex
100
AcDb2dVertex
10
10
20
10
30
0
70
0
0
VERTEX
5
10C5
330
10C1
100
AcDbEntity
8
0
100
AcDbVertex
100
AcDb2dVertex
10
0
20
10
30
0
70
0
0
SEQEND
5
10C6
330
10C1
100
AcDbEntity
8
0
0
ENDBLK
5
10C7
330
106
100
AcDbEntity
8
0
100
AcDbBlockEnd
0
BLOCK
5
10E0
330
107
100
AcDbEntity
8
0
100
AcDbBlockBegin
2
B5
70
0
10
0
20
0
30
0
3
B5
1

0
POLYLINE
5
10E1
330
107
100
AcDbEntity
8
0
100
AcDb2dPolyline
66
1
10
0
20
0
30
0
70
1
0
VERTEX
5
10E2
330
10E1
100
AcDbEntity
8
0
100
AcDbVertex
100
AcDb2dVertex
10
0
20
0
30
0
70
0
0
VERTEX
5
10E3
330
10E1
100
AcDbEntity
8
0
100
AcDbVertex
100
AcDb2dVertex
10
10
20
0
30
0
70
0
0
VERTEX
5
10E4
330
10E1
100
AcDbEntity
8
0
100
AcDbVertex
100
AcDb2dVertex
10
10
20
10
30
0
70
0
0
VERTEX
5
10E5
330
10E1
100
AcDbEntity
8
0
100
AcDbVertex
100
AcDb2dVertex
10
0
20
10
30
0
70
0
0
SEQEND
5
10E6
330
10E1
100
AcDbEntity
8
0
0
ENDBLK
5
10E7
330
107
100
AcDbEntity
8
0
100
AcDbBlockEnd
0
BLOCK
5
1100
330
108
100
AcDbEntity
8
0
100
AcDbBlockBegin
2
B6
70
0
10
0
20
0
30
0
3
B6
1

0
POLYLINE
5
1101
330
108
100
AcDbEntity
8
0
100
AcDb2dPolyline
66
1
10
0
20
0
30
0
70
1
0
VERTEX
5
1102
330
1101
100
AcDbEntity
8
0
100
AcDbVertex
100
AcDb2dVertex
10
0
20
0
30
0
70
0
0
VERTEX
5
1103
330
1101
100
AcDbEntity
8
0
100
AcDbVertex
100
AcDb2dVertex
10
10
20
0
30
0
70
0
0
VERTEX
5
1104
330
1101
100
AcDbEntity
8
0
100
AcDbVertex
100
AcDb2dVertex
10
10
20
10
30
0
70
0
0
VERTEX
5
1105
330
1101
100
AcDbEntity
8
0
100
AcDbVertex
100
AcDb2dVertex
10
0
20
10
30
0
70
0
0
SEQEND
5
1106
330
1101
100
AcDbEntity
8
0
0
ENDBLK
5
1107
330
108
100
AcDbEntity
8
0
100
AcDbBlockEnd
0
BLOCK
5
1120
330
109
100
AcDbEntity
8
0
100
AcDbBlockBegin
2
B7
70
0
10
0
20
0
30
0
3
B7
1

0
POLYLINE
5
1121
330
109
100
AcDbEntity
8
0
100
AcDb2dPolyline
66
1
10
0
20
0
30
0
70
1
0
VERTEX
5
1122
330
1121
100
AcDbEntity
8
0
100
AcDbVertex
100
AcDb2dVertex
10
0
20
0
30
0
70
0
0
VERTEX
5
1123
330
1121
100
AcDbEntity
8
0
100
AcDbVertex
100
AcDb2dVertex
10
10
20
0
30
0
70
0
0
VERTEX
5
1124
330
1121
100
AcDbEntity
8
0
100
AcDbVertex
100
AcDb2dVertex
10
10
20
10
30
0
70
0
0
VERTEX
5
1125
330
1121
100
AcDbEntity
8
0
100
AcDbVertex
100
AcDb2dVertex
10
0
20
10
30
0
70
0
0
SEQEND
5
1126
330
1121
100
AcDbEntity
8
0
0
ENDBLK
5
1127
330
109
100
AcDbEntity
8
0
100
AcDbBlockEnd
0
BLOCK
5
1140
330
10A
100
AcDbEntity
8
0
100
AcDbBlockBegin
2
B8
70
0
10
0
20
0
30
0
3
B8
1

0
POLYLINE
5
1141
330
10A
100
AcDbEntity
8
0
100
AcDb2dPolyline
66
1
10
0
20
0
30
0
70
1
0
VERTEX
5
1142
330
1141
100
AcDbEntity
8
0
100
AcDbVertex
100
AcDb2dVertex
10
0
20
0
30
0
70
0
0
VERTEX
5
1143
330
1141
100
AcDbEntity
8
0
100
AcDbVertex
100
AcDb2dVertex
10
10
20
0
30
0
70
0
0
VERTEX
5
1144
330
1141
100
AcDbEntity
8
0
100
AcDbVertex
100
AcDb2dVertex
10
10
20
10
30
0
70
0
0
VERTEX
5
1145
330
1141
100
AcDbEntity
8
0
100
AcDbVertex
100
AcDb2dVertex
10
0
20
10
30
0
70
0
0
SEQEND
5
1146
330
1141
100
AcDbEntity
8
0
0
ENDBLK
5
1147
330
10A
100
AcDbEntity
8
0
100
AcDbBlockEnd
0
BLOCK
5
1160
330
10B
100
AcDbEntity
8
0
100
AcDbBlockBegin
2
B9
70
0
10
0
20
0
30
0
3
B9
1

0
POLYLINE
5
1161
330
10B
100
AcDbEntity
8
0
100
AcDb2dPolyline
66
1
10
0
20
0
30
0
70
1
0
VERTEX
5
1162
330
1161
100
AcDbEntity
8
0
100
AcDbVertex
100
AcDb2dVertex
10
0
20
0
30
0
70
0
0
VERTEX
5
1163
330
1161
100
AcDbEntity
8
0
100
AcDbVertex
100
AcDb2dVertex
10
10
20
0
30
0
70
0
0
VERTEX
5
1164
330
1161
100
AcDbEntity
8
0
100
AcDbVertex
100
AcDb2dVertex
10
10
20
10
30
0
70
0
0
VERTEX
5
1165
330
1161
100
AcDbEntity
8
0
100
AcDbVertex
100
AcDb2dVertex
10
0
20
10
30
0
70
0
0
SEQEND
5
1166
330
1161
100
AcDbEntity
8
0
0
ENDBLK
5
1167
330
10B
100
AcDbEntity
8
0
100
AcDbBlockEnd
0
BLOCK
5
1180
330
10C
100
AcDbEntity
8
0
100
AcDbBlockBegin
2
B10
70
0
10
0
20
0
30
0
3
B10
1

0
POLYLINE
5
1181
330
10C
100
AcDbEntity
8
0
100
AcDb2dPolyline
66
1
10
0
20
0
30
0
70
1
0
VERTEX
5
1182
330
1181
100
AcDbEntity
8
0
100
AcDbVertex
100
AcDb2dVertex
10
0
20
0
30
0
70
0
0
VERTEX
5
1183
330
1181
100
AcDbEntity
8
0
100
AcDbVertex
100
AcDb2dVertex
10
10
20
0
30
0
70
0
0
VERTEX
5
1184
330
1181
100
AcDbEntity
8
0
100
AcDbVertex
100
AcDb2dVertex
10
10
20
10
30
0
70
0
0
VERTEX
5
1185
330
1181
100
AcDbEntity
8
0
100
AcDbVertex
100
AcDb2dVertex
10
0
20
10
30
0
70
0
0
SEQEND
5
1186
330
1181
100
AcDbEntity
8
0
0
ENDBLK
5
1187
330
10C
100
AcDbEntity
8
0
100
AcDbBlockEnd
0
BLOCK
5
11A0
330
10D
100
AcDbEntity
8
0
100
AcDbBlockBegin
2
B11
70
0
10
0
20
0
30
0
3
B11
1

0
POLYLINE
5
11A1
330
10D
100
AcDbEntity
8
0
100
AcDb2dPolyline
66
1
10
0
20
0
30
0
70
1
0
VERTEX
5
11A2
330
11A1
100
AcDbEntity
8
0
100
AcDbVertex
100
AcDb2dVertex
10
0
20
0
30
0
70
0
0
VERTEX
5
11A3
330
11A1
100
AcDbEntity
8
0
100
AcDbVertex
100
AcDb2dVertex
10
10
20
0
30
0
70
0
0
VERTEX
5
11A4
330
11A1
100
AcDbEntity
8
0
100
AcDbVertex
100
AcDb2dVertex
10
10
20
10
30
0
70
0
0
VERTEX
5
11A5
330
11A1
100
AcDbEntity
8
0
100
AcDbVertex
100
AcDb2dVertex
10
0
20
10
30
0
70
0
0
SEQEND
5
11A6
330
11A1
100
AcDbEntity
8
0
0
ENDBLK
5
11A7
330
10D
100
AcDbEntity
8
0
100
AcDbBlockEnd
0
BLOCK
5
11C0
330
10E
100
AcDbEntity
8
0
100
AcDbBlockBegin
2
B12
70
0
10
0
20
0
30
0
3
B12
1

0
POLYLINE
5
11C1
330
10E
100
AcDbEntity
8
0
100
AcDb2dPolyline
66
1
10
0
20
0
30
0
70
1
0
VERTEX
5
11C2
330
11C1
100
AcDbEntity
8
0
100
AcDbVertex
100
AcDb2dVertex
10
0
20
0
30
0
70
0
0
VERTEX
5
11C3
330
11C1
100
AcDbEntity
8
0
100
AcDbVertex
100
AcDb2dVertex
10
10
20
0
30
0
70
0
0
VERTEX
5
11C4
330
11C1
100
AcDbEntity
8
0
100
AcDbVertex
100
AcDb2dVertex
10
10
20
10
30
0
70
0
0
VERTEX
5
11C5
330
11C1
100
AcDbEntity
8
0
100
AcDbVertex
100
AcDb2dVertex
10
0
20
10
30
0
70
0
0
SEQEND
5
11C6
330
11C1
100
AcDbEntity
8
0
0
ENDBLK
5
11C7
330
10E
100
AcDbEntity
8
0
100
AcDbBlockEnd
0
BLOCK
5
11E0
330
10F
100
AcDbEntity
8
0
100
AcDbBlockBegin
2
B13
70
0
10
0
20
0
30
0
3
B13
1

0
POLYLINE
5
11E1
330
10F
100
AcDbEntity
8
0
100
AcDb2dPolyline
66
1
10
0
20
0
30
0
70
1
0
VERTEX
5
11E2
330
11E1
100
AcDbEntity
8
0
100
AcDbVertex
100
AcDb2dVertex
10
0
20
0
30
0
70
0
0
VERTEX
5
11E3
330
11E1
100
AcDbEntity
8
0
100
AcDbVertex
100
AcDb2dVertex
10
10
20
0
30
0
70
0
0
VERTEX
5
11E4
330
11E1
100
AcDbEntity
8
0
100
AcDbVertex
100
AcDb2dVertex
10
10
20
10
30
0
70
0
0
VERTEX
5
11E5
330
11E1
100
AcDbEntity
8
0
100
AcDbVertex
100
AcDb2dVertex
10
0
20
10
30
0
70
0
0
SEQEND
5
11E6
330
11E1
100
AcDbEntity
8
0
0
ENDBLK
5
11E7
330
10F
100
AcDbEntity
8
0
100
AcDbBlockEnd
0
BLOCK
5
1200
330
110
100
AcDbEntity
8
0
100
AcDbBlockBegin
2
B14
70
0
10
0
20
0
30
0
3
B14
1

0
POLYLINE
5
1201
330
110
100
AcDbEntity
8
0
100
AcDb2dPolyline
66
1
10
0
20
0
30
0
70
1
0
VERTEX
5
1202
330
1201
100
AcDbEntity
8
0
100
AcDbVertex
100
AcDb2dVertex
10
0
20
0
30
0
70
0
0
VERTEX
5
1203
330
1201
100
AcDbEntity
8
0
100
AcDbVertex
100
AcDb2dVertex
10
10
20
0
30
0
70
0
0
VERTEX
5
1204
330
1201
100
AcDbEntity
8
0
100
AcDbVertex
100
AcDb2dVertex
10
10
20
10
30
0
70
0
0
VERTEX
5
1205
330
1201
100
AcDbEntity
8
0
100
AcDbVertex
100
AcDb2dVertex
10
0
20
10
30
0
70
0
0
SEQEND
5
1206
330
1201
100
AcDbEntity
8
0
0
ENDBLK
5
1207
330
110
100
AcDbEntity
8
0
100
AcDbBlockEnd
0
BLOCK
5
1220
330
111
100
AcDbEntity
8
0
100
AcDbBlockBegin
2
B15
70
0
10
0
20
0
30
0
3
B15
1

0
POLYLINE
5
1221
330
111
100
AcDbEntity
8
0
100
AcDb2dPolyline
66
1
10
0
20
0
30
0
70
1
0
VERTEX
5
1222
330
1221
100
AcDbEntity
8
0
100
AcDbVertex
100
AcDb2dVertex
10
0
20
0
30
0
70
0
0
VERTEX
5
1223
330
1221
100
AcDbEntity
8
0
100
AcDbVertex
100
AcDb2dVertex
10
10
20
0
30
0
70
0
0
VERTEX
5
1224
330
1221
100
AcDbEntity
8
0
100
AcDbVertex
100
AcDb2dVertex
10
10
20
10
30
0
70
0
0
VERTEX
5
1225
330
1221
100
AcDbEntity
8
0
100
AcDbVertex
100
AcDb2dVertex
10
0
20
10
30
0
70
0
0
SEQEND
5
1226
330
1221
100
AcDbEntity
8
0
0
ENDBLK
5
1227
330
111
100
AcDbEntity
8
0
100
AcDbBlockEnd
0
BLOCK
5
1240
330
112
100
AcDbEntity
8
0
100
AcDbBlockBegin
2
B16
70
0
10
0
20
0
30
0
3
B16
1

0
POLYLINE
5
1241
330
112
100
AcDbEntity
8
0
100
AcDb2dPolyline
66
1
10
0
20
0
30
0
70
1
0
VERTEX
5
1242
330
1241
100
AcDbEntity
8
0
100
AcDbVertex
100
AcDb2dVertex
10
0
20
0
30
0
70
0
0
VERTEX
5
1243
330
1241
100
AcDbEntity
8
0
100
AcDbVertex
100
AcDb2dVertex
10
10
20
0
30
0
70
0
0
VERTEX
5
1244
330
1241
100
AcDbEntity
8
0
100
AcDbVertex
100
AcDb2dVertex
10
10
20
10
30
0
70
0
0
VERTEX
5
1245
330
1241
100
AcDbEntity
8
0
100
AcDbVertex
100
AcDb2dVertex
10
0
20
10
30
0
70
0
0
SEQEND
5
1246
330
1241
100
AcDbEntity
8
0
0
ENDBLK
5
1247
330
112
100
AcDbEntity
8
0
100
AcDbBlockEnd
0
BLOCK
5
1260
330
113
100
AcDbEntity
8
0
100
AcDbBlockBegin
2
B17
70
0
10
0
20
0
30
0
3
B17
1

0
POLYLINE
5
1261
330
113
100
AcDbEntity
8
0
100
AcDb2dPolyline
66
1
10
0
20
0
30
0
70
1
0
VERTEX
5
1262
330
1261
100
AcDbEntity
8
0
100
AcDbVertex
100
AcDb2dVertex
10
0
20
0
30
0
70
0
0
VERTEX
5
1263
330
1261
100
AcDbEntity
8
0
100
AcDbVertex
100
AcDb2dVertex
10
10
20
0
30
0
70
0
0
VERTEX
5
1264
330
1261
100
AcDbEntity
8
0
100
AcDbVertex
100
AcDb2dVertex
10
10
20
10
30
0
70
0
0
VERTEX
5
1265
330
1261
100
AcDbEntity
8
0
100
AcDbVertex
100
AcDb2dVertex
10
0
20
10
30
0
70
0
0
SEQEND
5
1266
330
1261
100
AcDbEntity
8
0
0
ENDBLK
5
1267
330
113
100
AcDbEntity
8
0
100
AcDbBlockEnd
0
BLOCK
5
1280
330
114
100
AcDbEntity
8
0
100
AcDbBlockBegin
2
B18
70
0
10
0
20
0
30
0
3
B18
1

0
POLYLINE
5
1281
330
114
100
AcDbEntity
8
0
100
AcDb2dPolyline
66
1
10
0
20
0
30
0
70
1
0
VERTEX
5
1282
330
1281
100
AcDbEntity
8
0
100
AcDbVertex
100
AcDb2dVertex
10
0
20
0
30
0
70
0
0
VERTEX
5
1283
330
1281
100
AcDbEntity
8
0
100
AcDbVertex
100
AcDb2dVertex
10
10
20
0
30
0
70
0
0
VERTEX
5
1284
330
1281
100
AcDbEntity
8
0
100
AcDbVertex
100
AcDb2dVertex
10
10
20
10
30
0
70
0
0
VERTEX
5
1285
330
1281
100
AcDbEntity
8
0
100
AcDbVertex
100
AcDb2dVertex
10
0
20
10
30
0
70
0
0
SEQEND
5
1286
330
1281
100
AcDbEntity
8
0
0
ENDBLK
5
1287
330
114
100
AcDbEntity
8
0
100
AcDbBlockEnd
0
BLOCK
5
12A0
330
115
100
AcDbEntity
8
0
100
AcDbBlockBegin
2
B19
70
0
10
0
20
0
30
0
3
B19
1

0
POLYLINE
5
12A1
330
115
100
AcDbEntity
8
0
100
AcDb2dPolyline
66
1
10
0
20
0
30
0
70
1
0
VERTEX
5
12A2
330
12A1
100
AcDbEntity
8
0
100
AcDbVertex
100
AcDb2dVertex
10
0
20
0
30
0
70
0
0
VERTEX
5
12A3
330
12A1
100
AcDbEntity
8
0
100
AcDbVertex
100
AcDb2dVertex
10
10
20
0
30
0
70
0
0
VERTEX
5
12A4
330
12A1
100
AcDbEntity
8
0
100
AcDbVertex
100
AcDb2dVertex
10
10
20
10
30
0
70
0
0
VERTEX
5
12A5
330
12A1
100
AcDbEntity
8
0
100
AcDbVertex
100
AcDb2dVertex
10
0
20
10
30
0
70
0
0
SEQEND
5
12A6
330
12A1
100
AcDbEntity
8
0
0
ENDBLK
5
12A7
330
115
100
AcDbEntity
8
0
100
AcDbBlockEnd
0
BLOCK
5
12C0
330
116
100
AcDbEntity
8
0
100
AcDbBlockBegin
2
B20
70
0
10
0
20
0
30
0
3
B20
1

0
POLYLINE
5
12C1
330
116
100
AcDbEntity
8
0
100
AcDb2dPolyline
66
1
10
0
20
0
30
0
70
1
0
VERTEX
5
12C2
330
12C1
100
AcDbEntity
8
0
100
AcDbVertex
100
AcDb2dVertex
10
0
20
0
30
0
70
0
0
VERTEX
5
12C3
330
12C1
100
AcDbEntity
8
0
100
AcDbVertex
100
AcDb2dVertex
10
10
20
0
30
0
70
0
0
VERTEX
5
12C4
330
12C1
100
AcDbEntity
8
0
100
AcDbVertex
100
AcDb2dVertex
10
10
20
10
30
0
70
0
0
VERTEX
5
12C5
330
12C1
100
AcDbEntity
8
0
100
AcDbVertex
100
AcDb2dVertex
10
0
20
10
30
0
70
0
0
SEQEND
5
12C6
330
12C1
100
AcDbEntity
8
0
0
ENDBLK
5
12C7
330
116
100
AcDbEntity
8
0
100
AcDbBlockEnd
0
BLOCK
5
12E0
330
117
100
AcDbEntity
8
0
100
AcDbBlockBegin
2
B21
70
0
10
0
20
0
30
0
3
B21
1

0
POLYLINE
5
12E1
330
117
100
AcDbEntity
8
0
100
AcDb2dPolyline
66
1
10
0
20
0
30
0
70
1
0
VERTEX
5
12E2
330
12E1
100
AcDbEntity
8
0
100
AcDbVertex
100
AcDb2dVertex
10
0
20
0
30
0
70
0
0
VERTEX
5
12E3
330
12E1
100
AcDbEntity
8
0
100
AcDbVertex
100
AcDb2dVertex
10
10
20
0
30
0
70
0
0
VERTEX
5
12E4
330
12E1
100
AcDbEntity
8
0
100
AcDbVertex
100
AcDb2dVertex
10
10
20
10
30
0
70
0
0
VERTEX
5
12E5
330
12E1
100
AcDbEntity
8
0
100
AcDbVertex
100
AcDb2dVertex
10
0
20
10
30
0
70
0
0
SEQEND
5
12E6
330
12E1
100
AcDbEntity
8
0
0
ENDBLK
5
12E7
330
117
100
AcDbEntity
8
0
100
AcDbBlockEnd
0
BLOCK
5
1300
330
118
100
AcDbEntity
8
0
100
AcDbBlockBegin
2
B22
70
0
10
0
20
0
30
0
3
B22
1

0
POLYLINE
5
1301
330
118
100
AcDbEntity
8
0
100
AcDb2dPolyline
66
1
10
0
20
0
30
0
70
1
0
VERTEX
5
1302
330
1301
100
AcDbEntity
8
0
100
AcDbVertex
100
AcDb2dVertex
10
0
20
0
30
0
70
0
0
VERTEX
5
1303
330
1301
100
AcDbEntity
8
0
100
AcDbVertex
100
AcDb2dVertex
10
10
20
0
30
0
70
0
0
VERTEX
5
1304
330
1301
100
AcDbEntity
8
0
100
AcDbVertex
100
AcDb2dVertex
10
10
20
10
30
0
70
0
0
VERTEX
5
1305
330
1301
100
AcDbEntity
8
0
100
AcDbVertex
100
AcDb2dVertex
10
0
20
10
30
0
70
0
0
SEQEND
5
1306
330
1301
100
AcDbEntity
8
0
0
ENDBLK
5
1307
330
118
100
AcDbEntity
8
0
100
AcDbBlockEnd
0
BLOCK
5
1320
330
119
100
AcDbEntity
8
0
100
AcDbBlockBegin
2
B23
70
0
10
0
20
0
30
0
3
B23
1

0
POLYLINE
5
1321
330
119
100
AcDbEntity
8
0
100
AcDb2dPolyline
66
1
10
0
20
0
30
0
70
1
0
VERTEX
5
1322
330
1321
100
AcDbEntity
8
0
100
AcDbVertex
100
AcDb2dVertex
10
0
20
0
30
0
70
0
0
VERTEX
5
1323
330
1321
100
AcDbEntity
8
0
100
AcDbVertex
100
AcDb2dVertex
10
10
20
0
30
0
70
0
0
VERTEX
5
1324
330
1321
100
AcDbEntity
8
0
100
AcDbVertex
100
AcDb2dVertex
10
10
20
10
30
0
70
0
0
VERTEX
5
1325
330
1321
100
AcDbEntity
8
0
100
AcDbVertex
100
AcDb2dVertex
10
0
20
10
30
0
70
0
0
SEQEND
5
1326
330
1321
100
AcDbEntity
8
0
0
ENDBLK
5
1327
330
119
100
AcDbEntity
8
0
100
AcDbBlockEnd
0
ENDSEC
0
SECTION
2
ENTITIES
0
INSERT
5
2002
330
100
100
AcDbEntity
8
0
100
AcDbBlockReference
2
B0
10
0
20
0
30
0
0
INSERT
5
2003
330
100
100
AcDbEntity
8
0
100
AcDbBlockReference
2
B1
10
20
20
0
30
0
0
INSERT
5
2004
330
100
100
AcDbEntity
8
0
100
AcDbBlockReference
2
B2
10
40
20
0
30
0
0
INSERT
5
2005
330
100
100
AcDbEntity
8
0
100
AcDbBlockReference
2
B3
10
60
20
0
30
0
0
INSERT
5
2006
330
100
100
AcDbEntity
8
0
100
AcDbBlockReference
2
B4
10
80
20
0
30
0
0
INSERT
5
2007
330
100
100
AcDbEntity
8
0
100
AcDbBlockReference
2
B5
10
100
20
0
30
0
0
INSERT
5
2008
330
100
100
AcDbEntity
8
0
100
AcDbBlockReference
2
B6
10
120
20
0
30
0
0
INSERT
5
2009
330
100
100
AcDbEntity
8
0
100
AcDbBlockReference
2
B7
10
140
20
0
30
0
0
INSERT
5
200A
330
100
100
AcDbEntity
8
0
100
AcDbBlockReference
2
B8
10
160
20
0
30
0
0
INSERT
5
200B
330
100
100
AcDbEntity
8
0
100
AcDbBlockReference
2
B9
10
180
20
0
30
0
0
INSERT
5
200C
330
100
100
AcDbEntity
8
0
100
AcDbBlockReference
2
B10
10
200
20
0
30
0
0
INSERT
5
200D
330
100
100
AcDbEntity
8
0
100
AcDbBlockReference
2
B11
10
220
20
0
30
0
0
INSERT
5
200E
330
100
100
AcDbEntity
8
0
100
AcDbBlockReference
2
B12
10
240
20
0
30
0
0
INSERT
5
200F
330
100
100
AcDbEntity
8
0
100
AcDbBlockReference
2
B13
10
260
20
0
30
0
0
INSERT
5
2010
330
100
100
AcDbEntity
8
0
100
AcDbBlockReference
2
B14
10
280
20
0
30
0
0
INSERT
5
2011
330
100
100
AcDbEntity
8
0
100
AcDbBlockReference
2
B15
10
300
20
0
30
0
0
INSERT
5
2012
330
100
100
AcDbEntity
8
0
100
AcDbBlockReference
2
B16
10
320
20
0
30
0
0
INSERT
5
2013
330
100
100
AcDbEntity
8
0
100
AcDbBlockReference
2
B17
10
340
20
0
30
0
0
INSERT
5
2014
330
100
100
AcDbEntity
8
0
100
AcDbBlockReference
2
B18
10
360
20
0
30
0
0
INSERT
5
2015
330
100
100
AcDbEntity
8
0
100
AcDbBlockReference
2
B19
10
380
20
0
30
0
0
INSERT
5
2016
330
100
100
AcDbEntity
8
0
100
AcDbBlockReference
2
B20
10
400
20
0
30
0
0
INSERT
5
2017
330
100
100
AcDbEntity
8
0
100
AcDbBlockReference
2
B21
10
420
20
0
30
0
0
INSERT
5
2018
330
100
100
AcDbEntity
8
0
100
AcDbBlockReference
2
B22
10
440
20
0
30
0
0
INSERT
5
2019
330
100
100
AcDbEntity
8
0
100
AcDbBlockReference
2
B23
10
460
20
0
30
0
0
ENDSEC
0
EOF
